<?xml version="1.0" encoding="utf-8"?>
<!-- Generator: Adobe Illustrator 23.1.0, SVG Export Plug-In . SVG Version: 6.00 Build 0)  -->
<svg version="1.1" id="Layer_1" xmlns="http://www.w3.org/2000/svg" xmlns:xlink="http://www.w3.org/1999/xlink" x="0px" y="0px"
	 viewBox="0 0 379.4 319.8" style="enable-background:new 0 0 379.4 319.8;" xml:space="preserve">
<style type="text/css">
	.st0{display:none;}
	.st1{display:inline;fill:#ED1A3B;}
	.st2{display:inline;fill:#333333;}
	.st3{fill:#EFEFEF;}
	.st4{display:inline;}
	.st5{display:inline;fill:#FFFFFF;}
</style>
<g id="Vermelho" class="st0">
	<path class="st1" d="M284,218.8l-1.5,16.6c-0.2,2.6-3.5,3.7-5.2,1.7l-23.7-28.2c-1.3-1.6-0.7-4,1.3-4.7l18.5-6.7
		c1.5-0.6,3.2,0.2,3.8,1.8l6.7,18.4C283.9,217.9,284,218.4,284,218.8z"/>
	<path class="st1" d="M192.1,88.3l78.5,93.5c0.2,0.3,0.4,0.6,0.5,0.9l0.1,0.2c0.6,1.5-0.2,3.2-1.8,3.8l-24.4,8.9
		c-1.2,0.4-2.5,0.1-3.3-0.9l-67.2-80.1c-0.8-1-0.9-2.3-0.3-3.4l13-22.5c0.8-1.4,2.6-1.9,4.1-1.1h0C191.6,87.8,191.9,88,192.1,88.3z"
		/>
	<path class="st1" d="M159.3,69.1l17.1,9.8c1.4,0.8,1.9,2.6,1.1,4.1l-9.8,17.1c-1,1.8-3.5,2-4.9,0.4l-23.8-28.4
		c-1.7-2-0.1-5.1,2.5-4.9l16.6,1.5C158.5,68.8,158.9,68.9,159.3,69.1z"/>
	<path class="st1" d="M129.1,78.2l28.9,34.4c0.8,1,0.9,2.3,0.3,3.4L108,203.2c-1.7,2.9-6.1,1.3-5.5-2l21.4-121.6
		C124.4,77.1,127.5,76.3,129.1,78.2z"/>
	<path class="st1" d="M169.9,126.8l59,70.4c1.3,1.6,0.7,4-1.3,4.7l-126.2,45.9c-2.6,0.9-5-1.9-3.6-4.3L165,127.2
		C166.1,125.4,168.6,125.2,169.9,126.8z"/>
	<path class="st1" d="M143,244.8l94.5-34.4c1.2-0.4,2.5-0.1,3.3,0.9l28.9,34.4c1.6,1.9,0.2,4.9-2.3,4.9l-123.4,0
		C140.7,250.6,139.8,246,143,244.8z"/>
</g>
<g id="Preto" class="st0">
	<path class="st2" d="M284,218.8l-1.5,16.6c-0.2,2.6-3.5,3.7-5.2,1.7l-23.7-28.2c-1.3-1.6-0.7-4,1.3-4.7l18.5-6.7
		c1.5-0.6,3.2,0.2,3.8,1.8l6.7,18.4C283.9,217.9,284,218.4,284,218.8z"/>
	<path class="st2" d="M192.1,88.3l78.5,93.5c0.2,0.3,0.4,0.6,0.5,0.9l0.1,0.2c0.6,1.5-0.2,3.2-1.8,3.8l-24.4,8.9
		c-1.2,0.4-2.5,0.1-3.3-0.9l-67.2-80.1c-0.8-1-0.9-2.3-0.3-3.4l13-22.5c0.8-1.4,2.6-1.9,4.1-1.1h0C191.6,87.8,191.9,88,192.1,88.3z"
		/>
	<path class="st2" d="M159.3,69.1l17.1,9.8c1.4,0.8,1.9,2.6,1.1,4.1l-9.8,17.1c-1,1.8-3.5,2-4.9,0.4l-23.8-28.4
		c-1.7-2-0.1-5.1,2.5-4.9l16.6,1.5C158.5,68.8,158.9,68.9,159.3,69.1z"/>
	<path class="st2" d="M129.1,78.2l28.9,34.4c0.8,1,0.9,2.3,0.3,3.4L108,203.2c-1.7,2.9-6.1,1.3-5.5-2l21.4-121.6
		C124.4,77.1,127.5,76.3,129.1,78.2z"/>
	<path class="st2" d="M169.9,126.8l59,70.4c1.3,1.6,0.7,4-1.3,4.7l-126.2,45.9c-2.6,0.9-5-1.9-3.6-4.3L165,127.2
		C166.1,125.4,168.6,125.2,169.9,126.8z"/>
	<path class="st2" d="M143,244.8l94.5-34.4c1.2-0.4,2.5-0.1,3.3,0.9l28.9,34.4c1.6,1.9,0.2,4.9-2.3,4.9l-123.4,0
		C140.7,250.6,139.8,246,143,244.8z"/>
</g>
<g id="Branco">
	<path class="st3" d="M284,218.8l-1.5,16.6c-0.2,2.6-3.5,3.7-5.2,1.7l-23.7-28.2c-1.3-1.6-0.7-4,1.3-4.7l18.5-6.7
		c1.5-0.6,3.2,0.2,3.8,1.8l6.7,18.4C283.9,217.9,284,218.4,284,218.8z"/>
	<path class="st3" d="M192.1,88.3l78.5,93.5c0.2,0.3,0.4,0.6,0.5,0.9l0.1,0.2c0.6,1.5-0.2,3.2-1.8,3.8l-24.4,8.9
		c-1.2,0.4-2.5,0.1-3.3-0.9l-67.2-80.1c-0.8-1-0.9-2.3-0.3-3.4l13-22.5c0.8-1.4,2.6-1.9,4.1-1.1h0C191.6,87.8,191.9,88,192.1,88.3z"
		/>
	<path class="st3" d="M159.3,69.1l17.1,9.8c1.4,0.8,1.9,2.6,1.1,4.1l-9.8,17.1c-1,1.8-3.5,2-4.9,0.4l-23.8-28.4
		c-1.7-2-0.1-5.1,2.5-4.9l16.6,1.5C158.5,68.8,158.9,68.9,159.3,69.1z"/>
	<path class="st3" d="M129.1,78.2l28.9,34.4c0.8,1,0.9,2.3,0.3,3.4L108,203.2c-1.7,2.9-6.1,1.3-5.5-2l21.4-121.6
		C124.4,77.1,127.5,76.3,129.1,78.2z"/>
	<path class="st3" d="M169.9,126.8l59,70.4c1.3,1.6,0.7,4-1.3,4.7l-126.2,45.9c-2.6,0.9-5-1.9-3.6-4.3L165,127.2
		C166.1,125.4,168.6,125.2,169.9,126.8z"/>
	<path class="st3" d="M143,244.8l94.5-34.4c1.2-0.4,2.5-0.1,3.3,0.9l28.9,34.4c1.6,1.9,0.2,4.9-2.3,4.9l-123.4,0
		C140.7,250.6,139.8,246,143,244.8z"/>
</g>
<g id="Mono-01" class="st0">
	<path class="st4" d="M284,218.8l-1.5,16.6c-0.2,2.6-3.5,3.7-5.2,1.7l-23.7-28.2c-1.3-1.6-0.7-4,1.3-4.7l18.5-6.7
		c1.5-0.6,3.2,0.2,3.8,1.8l6.7,18.4C283.9,217.9,284,218.4,284,218.8z"/>
	<path class="st4" d="M192.1,88.3l78.5,93.5c0.2,0.3,0.4,0.6,0.5,0.9l0.1,0.2c0.6,1.5-0.2,3.2-1.8,3.8l-24.4,8.9
		c-1.2,0.4-2.5,0.1-3.3-0.9l-67.2-80.1c-0.8-1-0.9-2.3-0.3-3.4l13-22.5c0.8-1.4,2.6-1.9,4.1-1.1h0C191.6,87.8,191.9,88,192.1,88.3z"
		/>
	<path class="st4" d="M159.3,69.1l17.1,9.8c1.4,0.8,1.9,2.6,1.1,4.1l-9.8,17.1c-1,1.8-3.5,2-4.9,0.4l-23.8-28.4
		c-1.7-2-0.1-5.1,2.5-4.9l16.6,1.5C158.5,68.8,158.9,68.9,159.3,69.1z"/>
	<path class="st4" d="M129.1,78.2l28.9,34.4c0.8,1,0.9,2.3,0.3,3.4L108,203.2c-1.7,2.9-6.1,1.3-5.5-2l21.4-121.6
		C124.4,77.1,127.5,76.3,129.1,78.2z"/>
	<path class="st4" d="M169.9,126.8l59,70.4c1.3,1.6,0.7,4-1.3,4.7l-126.2,45.9c-2.6,0.9-5-1.9-3.6-4.3L165,127.2
		C166.1,125.4,168.6,125.2,169.9,126.8z"/>
	<path class="st4" d="M143,244.8l94.5-34.4c1.2-0.4,2.5-0.1,3.3,0.9l28.9,34.4c1.6,1.9,0.2,4.9-2.3,4.9l-123.4,0
		C140.7,250.6,139.8,246,143,244.8z"/>
</g>
<g id="Mono-02" class="st0">
	<path class="st5" d="M284,218.8l-1.5,16.6c-0.2,2.6-3.5,3.7-5.2,1.7l-23.7-28.2c-1.3-1.6-0.7-4,1.3-4.7l18.5-6.7
		c1.5-0.6,3.2,0.2,3.8,1.8l6.7,18.4C283.9,217.9,284,218.4,284,218.8z"/>
	<path class="st5" d="M192.1,88.3l78.5,93.5c0.2,0.3,0.4,0.6,0.5,0.9l0.1,0.2c0.6,1.5-0.2,3.2-1.8,3.8l-24.4,8.9
		c-1.2,0.4-2.5,0.1-3.3-0.9l-67.2-80.1c-0.8-1-0.9-2.3-0.3-3.4l13-22.5c0.8-1.4,2.6-1.9,4.1-1.1h0C191.6,87.8,191.9,88,192.1,88.3z"
		/>
	<path class="st5" d="M159.3,69.1l17.1,9.8c1.4,0.8,1.9,2.6,1.1,4.1l-9.8,17.1c-1,1.8-3.5,2-4.9,0.4l-23.8-28.4
		c-1.7-2-0.1-5.1,2.5-4.9l16.6,1.5C158.5,68.8,158.9,68.9,159.3,69.1z"/>
	<path class="st5" d="M129.1,78.2l28.9,34.4c0.8,1,0.9,2.3,0.3,3.4L108,203.2c-1.7,2.9-6.1,1.3-5.5-2l21.4-121.6
		C124.4,77.1,127.5,76.3,129.1,78.2z"/>
	<path class="st5" d="M169.9,126.8l59,70.4c1.3,1.6,0.7,4-1.3,4.7l-126.2,45.9c-2.6,0.9-5-1.9-3.6-4.3L165,127.2
		C166.1,125.4,168.6,125.2,169.9,126.8z"/>
	<path class="st5" d="M143,244.8l94.5-34.4c1.2-0.4,2.5-0.1,3.3,0.9l28.9,34.4c1.6,1.9,0.2,4.9-2.3,4.9l-123.4,0
		C140.7,250.6,139.8,246,143,244.8z"/>
</g>
</svg>
