<?xml version="1.0" encoding="utf-8"?>
<!-- Generator: Adobe Illustrator 23.1.0, SVG Export Plug-In . SVG Version: 6.00 Build 0)  -->
<svg version="1.1" id="Layer_1" xmlns="http://www.w3.org/2000/svg" xmlns:xlink="http://www.w3.org/1999/xlink" x="0px" y="0px"
	 viewBox="0 0 452.7 554.6" style="enable-background:new 0 0 452.7 554.6;" xml:space="preserve">
<style type="text/css">
	.st0{fill:#333333;}
	.st1{fill:#EFEFEF;}
	.st2{fill-rule:evenodd;clip-rule:evenodd;fill:#ED1A3B;}
	.st3{display:none;}
	.st4{display:inline;fill:#EFEFEF;}
	.st5{display:inline;}
	.st6{fill:#FFFFFF;}
	.st7{fill-rule:evenodd;clip-rule:evenodd;fill:#FFFFFF;}
	.st8{display:inline;fill:#FFFFFF;}
	.st9{fill-rule:evenodd;clip-rule:evenodd;}
</style>
<g id="MG-01">
	<path class="st0" d="M135,504.8c-5.7,0-11.1-2.2-15.1-6.3l-42.6-44.8c-3.5-3.5-6.9-10.8-6-17.6l65.2-369.7
		c2.1-9.8,10.9-16.9,20.9-16.9l210.7,0c13.2,0,23.3,12,21,25l-61.9,351.2c-8.1,45.7-47.8,79-94.1,79H135z"/>
	<g>
		<path class="st1" d="M363.3,76.1l-31.2,177.1h-50.6l13.4-75.9l-55,25.3l-46.1-25.3l-45.7,259H97.4L161,76.1h12.6l73.4,50.6
			l100.6-50.6H363.3z"/>
		<path class="st1" d="M320.1,278.2h-38.1c-2.9,0.1-5.3,2.3-5.9,5l-3.6,20.3c-2.6-19-11.1-25.3-33.5-25.3c-43.6,0-55.1,25.3-64,75.9
			c-8.9,50.6,7.1,69.6,38.3,69.6c19.7,0,40.2-12.6,41.3-19c-4.5,25.3-19,31.6-43.5,31.6c-18.6,0-63.2,0-63.2,0l-7.9,44.3
			c0,0,53.3,0,75.9,0c50.3,0,80.3-25.3,87-63.2l23.2-131.5c0-0.1,0-0.1,0-0.2c0.1-0.4,0.1-0.7,0.1-1.1
			C326.5,281,323.6,278.2,320.1,278.2z M259.2,379.3c-7.8,6.7-16.7,6.3-26.4,6.3c-25.3,0-21.2-23.1-18.6-37.9
			c4.5-25.3,17.1-25.3,29.8-25.3c5.6,0,17.8,0,24.2,6.3L259.2,379.3z"/>
		<polygon class="st2" points="97.4,436.3 148.1,436.3 140.2,480.5 		"/>
	</g>
</g>
<g id="MG-02" class="st3">
	<path class="st4" d="M135,504.8c-5.7,0-11.1-2.2-15.1-6.3l-42.6-44.8c-3.5-3.5-6.9-10.8-6-17.6l65.2-369.7
		c2.1-9.8,10.9-16.9,20.9-16.9l210.7,0c13.2,0,23.3,12,21,25l-61.9,351.2c-8.1,45.7-47.8,79-94.1,79H135z"/>
	<g class="st5">
		<path class="st0" d="M363.3,76.1l-31.2,177.1h-50.6l13.4-75.9l-55,25.3l-46.1-25.3l-45.7,259H97.4L161,76.1h12.6l73.4,50.6
			l100.6-50.6H363.3z"/>
		<path class="st0" d="M320.1,278.2h-38.1c-2.9,0.1-5.3,2.3-5.9,5l-3.6,20.3c-2.6-19-11.1-25.3-33.5-25.3c-43.6,0-55.1,25.3-64,75.9
			c-8.9,50.6,7.1,69.6,38.3,69.6c19.7,0,40.2-12.6,41.3-19c-4.5,25.3-19,31.6-43.5,31.6c-18.6,0-63.2,0-63.2,0l-7.9,44.3
			c0,0,53.3,0,75.9,0c50.3,0,80.3-25.3,87-63.2l23.2-131.5c0-0.1,0-0.1,0-0.2c0.1-0.4,0.1-0.7,0.1-1.1
			C326.5,281,323.6,278.2,320.1,278.2z M259.2,379.3c-7.8,6.7-16.7,6.3-26.4,6.3c-25.3,0-21.2-23.1-18.6-37.9
			c4.5-25.3,17.1-25.3,29.8-25.3c5.6,0,17.8,0,24.2,6.3L259.2,379.3z"/>
		<polygon class="st2" points="97.4,436.3 148.1,436.3 140.2,480.5 		"/>
	</g>
</g>
<g id="Mono-03" class="st3">
	<path class="st5" d="M135,504.8c-5.7,0-11.1-2.2-15.1-6.3l-42.6-44.8c-3.5-3.5-6.9-10.8-6-17.6l65.2-369.7
		c2.1-9.8,10.9-16.9,20.9-16.9l210.7,0c13.2,0,23.3,12,21,25l-61.9,351.2c-8.1,45.7-47.8,79-94.1,79H135z"/>
	<g class="st5">
		<path class="st6" d="M363.3,76.1l-31.2,177.1h-50.6l13.4-75.9l-55,25.3l-46.1-25.3l-45.7,259H97.4L161,76.1h12.6l73.4,50.6
			l100.6-50.6H363.3z"/>
		<path class="st6" d="M320.1,278.2h-38.1c-2.9,0.1-5.3,2.3-5.9,5l-3.6,20.3c-2.6-19-11.1-25.3-33.5-25.3c-43.6,0-55.1,25.3-64,75.9
			c-8.9,50.6,7.1,69.6,38.3,69.6c19.7,0,40.2-12.6,41.3-19c-4.5,25.3-19,31.6-43.5,31.6c-18.6,0-63.2,0-63.2,0l-7.9,44.3
			c0,0,53.3,0,75.9,0c50.3,0,80.3-25.3,87-63.2l23.2-131.5c0-0.1,0-0.1,0-0.2c0.1-0.4,0.1-0.7,0.1-1.1
			C326.5,281,323.6,278.2,320.1,278.2z M259.2,379.3c-7.8,6.7-16.7,6.3-26.4,6.3c-25.3,0-21.2-23.1-18.6-37.9
			c4.5-25.3,17.1-25.3,29.8-25.3c5.6,0,17.8,0,24.2,6.3L259.2,379.3z"/>
		<polygon class="st7" points="97.4,436.3 148.1,436.3 140.2,480.5 		"/>
	</g>
</g>
<g id="Mono-04" class="st3">
	<path class="st8" d="M135,504.8c-5.7,0-11.1-2.2-15.1-6.3l-42.6-44.8c-3.5-3.5-6.9-10.8-6-17.6l65.2-369.7
		c2.1-9.8,10.9-16.9,20.9-16.9l210.7,0c13.2,0,23.3,12,21,25l-61.9,351.2c-8.1,45.7-47.8,79-94.1,79H135z"/>
	<g class="st5">
		<path d="M363.3,76.1l-31.2,177.1h-50.6l13.4-75.9l-55,25.3l-46.1-25.3l-45.7,259H97.4L161,76.1h12.6l73.4,50.6l100.6-50.6H363.3z"
			/>
		<path d="M320.1,278.2h-38.1c-2.9,0.1-5.3,2.3-5.9,5l-3.6,20.3c-2.6-19-11.1-25.3-33.5-25.3c-43.6,0-55.1,25.3-64,75.9
			c-8.9,50.6,7.1,69.6,38.3,69.6c19.7,0,40.2-12.6,41.3-19c-4.5,25.3-19,31.6-43.5,31.6c-18.6,0-63.2,0-63.2,0l-7.9,44.3
			c0,0,53.3,0,75.9,0c50.3,0,80.3-25.3,87-63.2l23.2-131.5c0-0.1,0-0.1,0-0.2c0.1-0.4,0.1-0.7,0.1-1.1
			C326.5,281,323.6,278.2,320.1,278.2z M259.2,379.3c-7.8,6.7-16.7,6.3-26.4,6.3c-25.3,0-21.2-23.1-18.6-37.9
			c4.5-25.3,17.1-25.3,29.8-25.3c5.6,0,17.8,0,24.2,6.3L259.2,379.3z"/>
		<polygon class="st9" points="97.4,436.3 148.1,436.3 140.2,480.5 		"/>
	</g>
</g>
</svg>
