<?xml version="1.0" encoding="utf-8"?>
<!-- Generator: Adobe Illustrator 23.1.0, SVG Export Plug-In . SVG Version: 6.00 Build 0)  -->
<svg version="1.1" id="Layer_1" xmlns="http://www.w3.org/2000/svg" xmlns:xlink="http://www.w3.org/1999/xlink" x="0px" y="0px"
	 viewBox="0 0 929.7 349.2" style="enable-background:new 0 0 929.7 349.2;" xml:space="preserve">
<style type="text/css">
	.st0{fill:#333333;}
	.st1{fill-rule:evenodd;clip-rule:evenodd;fill:#ED1A3B;}
	.st2{fill:#EFEFEF;}
	.st3{fill:#ED1A3B;}
	.st4{display:none;}
	.st5{display:inline;fill:#EFEFEF;}
	.st6{display:inline;}
	.st7{fill-rule:evenodd;clip-rule:evenodd;fill:#FFFFFF;}
	.st8{fill:#FFFFFF;}
	.st9{display:inline;fill:#FFFFFF;}
	.st10{fill-rule:evenodd;clip-rule:evenodd;}
</style>
<g id="Logo-01">
	<path class="st0" d="M147.2,318l-57.1,0c-3.6,0-9.2,0.5-11.7-2l-0.2-0.2l-29.4-31.1c-2.5-2.5-3.8-5.8-3.8-9.4c0-0.5,0-1,0.1-1.4
		v-0.2l0.1-0.8L85.8,42.4l0.1-0.5c1.3-6.1,6.9-10.6,13.1-10.6h723.6c36.4,0,64,32.9,57.6,68.7l-3.4,19.2c-5.9,33.5-35,58-69.1,58
		h-36.1c-0.1,0-0.2,0.1-0.2,0.2l-17.7,100.3c0,0,0,0,0,0l0,0c-1.4,6.2-6.9,10.6-13.3,10.6l-538.8,0c-0.1,0-0.2,0-0.2,0.1
		C196.8,297.4,174.2,318,147.2,318z"/>
	<g>
		<polygon class="st1" points="62.4,273.9 94.2,273.9 89.2,301.6 		"/>
		<g>
			<path class="st2" d="M229.2,47.9L209.6,159h-31.7l8.4-47.6l-34.5,15.9l-28.9-15.9L94.2,273.9H62.4l39.9-225.9h7.9l46,31.7
				l63.1-31.7H229.2z"/>
			<path class="st2" d="M345.2,154.9l-0.7,4h-31.7l-5.1-15.9H260l-10.7,15.9h-31.7l0.7-4l74.4-107.1h11.9L345.2,154.9z M299.9,119.2
				l-7.7-23.8l-16.1,23.8H299.9z"/>
			<path class="st2" d="M446.6,115.1l17.4,40.1l-0.7,4h-31.7l-15.8-38h-25.1l-6.7,38h-31.7l19.6-111.1h59.8
				c24,0,40.4,11.9,37.9,31.3C467.2,97,461.6,107.6,446.6,115.1z M395.4,95.3h31.7c8.5,0,14.8-5.7,14.8-13.6c0-5.9-5-10.3-12.1-10.3
				l-30.3,0L395.4,95.3z"/>
			<path class="st2" d="M565.8,114.7l17.4,40.1l-0.7,4h-31.7l-15.8-38h-25.1l-6.7,38h-31.7L491,47.8h59.8c24,0,40.4,11.9,37.9,31.3
				C586.3,96.6,580.7,107.2,565.8,114.7z M514.6,94.9h31.7c8.5,0,14.8-5.7,14.8-13.6c0-5.9-5-10.3-12.1-10.3l-30.3,0L514.6,94.9z"/>
			<path class="st2" d="M610,47.8h31.7l-19.6,111.1h-31.7L610,47.8z"/>
			<path class="st2" d="M684.4,75.5l-2.8,15.9h55.5l-4.2,23.8h-55.5l-2.8,15.9h63.5l-4.9,27.8H638l19.6-111.1h95.2l-4.9,27.8H684.4z
				"/>
			<path class="st2" d="M862.7,99l-2.8,15.9c-4.5,25.4-26.6,43.9-52.4,43.9l-10.9,0h-55.3c-0.1,0-0.3-0.1-0.2-0.3l19.5-110.6
				c0-0.1,0.1-0.2,0.2-0.2l58.9,0C846.9,47.8,867.4,72.2,862.7,99z M813.7,75.5h-25.9c-0.1,0-0.2,0.1-0.2,0.2l-9.7,55.1
				c0,0.1,0.1,0.3,0.2,0.3h25.1c12.8,0,23.8-9.2,26-21.8l2.2-12.6C833.3,85.6,824.8,75.5,813.7,75.5z"/>
			<path class="st2" d="M202.1,174.7h-23.9c-1.8,0.1-3.3,1.4-3.7,3.2l-2.2,12.7c-1.6-11.9-7-15.9-21-15.9
				c-27.4,0-34.5,15.9-40.1,47.6c-5.6,31.7,4.4,43.6,24.1,43.6c12.3,0,25.2-7.9,25.9-11.9c-2.8,15.9-11.9,19.8-27.3,19.8
				c-11.7,0-39.6,0-39.6,0l-4.9,27.8c0,0,33.4,0,47.6,0c31.6,0,50.4-15.9,54.6-39.7l14.5-82.5c0,0,0-0.1,0-0.1
				c0-0.2,0.1-0.5,0.1-0.7C206.1,176.5,204.3,174.7,202.1,174.7z M163.9,238.2c-4.9,4.2-10.5,4-16.6,4c-15.9,0-13.3-14.5-11.7-23.8
				c2.8-15.9,10.7-15.9,18.7-15.9c3.5,0,11.2,0,15.2,4L163.9,238.2z"/>
			<path class="st2" d="M297.2,174.7h-23.9c-1.8,0.1-3.3,1.4-3.7,3.2l-2.2,12.7c-1.6-11.9-7-15.9-21-15.9
				c-27.4,0-34.5,15.9-40.1,47.6c-5.6,31.7,4.4,43.6,24.1,43.6c12.3,0,25.3-7.9,26-11.9c-0.9,5.2-1.5,8.7-2,11.1c0,0.1,0,0.1,0,0.2
				c0,0.2-0.1,0.5-0.1,0.7c0,2.2,1.8,4,4,4h23.7c1.9,0,3.5-1.4,3.9-3.2l15.3-87.3c0,0,0-0.1,0-0.1c0-0.2,0.1-0.5,0.1-0.7
				C301.1,176.5,299.4,174.7,297.2,174.7z M259,238.2c-4.9,4.2-10.5,4-16.6,4c-15.9,0-13.3-14.5-11.7-23.8
				c2.8-15.9,10.7-15.9,18.7-15.9c3.5,0,11.2,0,15.2,4L259,238.2z"/>
			<path class="st2" d="M446.5,190.6c-4.7-22.1-36-18.5-51-6.1c-2,1.7-3.8,3.8-5.3,6.1c-0.7-3-1.5-5.5-2.4-7.5
				c-5.4-12.3-27.3-9.7-39.2-2.8c-3.8,2.4-7.1,5.8-9.7,10.3l2-11.1c0.1-0.3,0.1-0.5,0.1-0.8c0-2.2-1.8-4-4-4h-23.7
				c-1.9,0-3.5,1.3-3.9,3.1c0,0.1-15.4,87.4-15.4,87.5c-0.3,1.8,0.9,4.1,3.9,4.6h23.7c1.9,0,3.4-1.3,3.9-3.1
				c0,0,10.1-57.2,10.1-57.2c0.4-1.8,2-3.2,3.9-3.2h15.8c2.2,0,3.9,1.8,3.9,4c0,0.3-9.6,54.8-9.6,54.9c0,0.2-0.1,0.4-0.1,0.7
				c0,2.2,1.8,4,4,4h23.7c1.9,0,3.4-1.3,3.9-3c0,0,10.1-57.2,10.1-57.3c0.4-1.8,2-3.1,3.9-3.1h15.7c2.2,0,4,1.8,4,4
				c0,0.1-0.1,0.7-0.1,0.8c0,0-9.5,54-9.5,54c0,0.2-0.1,0.4-0.1,0.7c0,2.2,1.8,4,4,4h23.7c1.9,0,3.4-1.3,3.9-3
				c0,0,10.4-59.1,10.5-60.4C447.7,200.6,447.6,195.2,446.5,190.6z"/>
			<path class="st2" d="M494.3,174.7c-19.4,0-36,14-39.3,33.1l-2.5,14.5l-1,5.4c-3.9,22,13,42.2,35.3,42.2l4.9,0h36.3
				c1.9,0,3.5-1.3,3.9-3.1c0-0.1,2.3-13.1,3.5-20.2c0.4-2.3-1.4-4.5-3.8-4.5l-32.2,0c-15.9,0-23.1-4-21.7-11.9h57.2
				c1.9,0,3.5-1.3,3.9-3.1c0-0.1,0-0.2,0-0.2c0.1-0.6,1.3-7.4,2.8-15.8c3.3-19-11.3-36.3-30.5-36.3H494.3z M518.6,206.4H479l0,0
				c1-6.1,6.3-10.6,12.5-10.6h18.3C515.3,195.9,519.6,200.9,518.6,206.4L518.6,206.4z"/>
			<path class="st2" d="M586,202.5h12.5c6.7-0.1,28.6,0,28.6,0c1.9,0,3.4-1.3,3.8-3.1c0,0,0,0,0,0s3.5-20.1,3.5-20.2
				c0-0.1,0-0.3,0-0.4c0-2.1-1.7-3.9-3.8-4h-0.3c-5.9,0-16.3,0-26.9,0c-31.7,0-47.6,0-53.2,31.7c-4.2,23.8,11,27.8,26.8,27.8h19.1
				c2.2,0,4,1.8,4,4c0,2.2-1.8,4-4,4h-48.9c-1.9,0-3.5,1.4-3.9,3.2L540,265c-0.5,2,0.7,4.3,3.9,4.9h34.8c31.7,0,47.7,0,53.3-31.7
				c4.2-23.8-11-27.8-26.8-27.8H586c-2.2,0-4-1.8-4-4C582.1,204.2,583.9,202.5,586,202.5z"/>
		</g>
		<g>
			<path class="st3" d="M737.7,249.8l-0.7,7.6c-0.1,1.2-1.6,1.7-2.4,0.8l-10.8-12.8c-0.6-0.7-0.3-1.8,0.6-2.1l8.4-3.1
				c0.7-0.3,1.5,0.1,1.7,0.8l3,8.4C737.7,249.4,737.7,249.6,737.7,249.8z"/>
			<path class="st3" d="M695.9,190.4l35.7,42.6c0.1,0.1,0.2,0.3,0.2,0.4l0,0.1c0.3,0.7-0.1,1.5-0.8,1.7l-11.1,4
				c-0.5,0.2-1.1,0-1.5-0.4l-30.6-36.4c-0.4-0.4-0.4-1.1-0.1-1.5l5.9-10.2c0.4-0.6,1.2-0.9,1.8-0.5l0,0
				C695.7,190.2,695.8,190.3,695.9,190.4z"/>
			<path class="st3" d="M681,181.7l7.8,4.5c0.6,0.4,0.9,1.2,0.5,1.8l-4.5,7.8c-0.5,0.8-1.6,0.9-2.2,0.2l-10.8-12.9
				c-0.8-0.9,0-2.3,1.2-2.2l7.6,0.7C680.6,181.5,680.8,181.6,681,181.7z"/>
			<path class="st3" d="M667.2,185.8l13.1,15.7c0.4,0.4,0.4,1.1,0.1,1.5l-22.9,39.7c-0.8,1.3-2.8,0.6-2.5-0.9l9.8-55.3
				C665.1,185.3,666.5,185,667.2,185.8z"/>
			<path class="st3" d="M685.8,208l26.9,32c0.6,0.7,0.3,1.8-0.6,2.1L654.7,263c-1.2,0.4-2.3-0.9-1.6-1.9l30.6-52.9
				C684.1,207.3,685.2,207.2,685.8,208z"/>
			<path class="st3" d="M673.6,261.7l43-15.7c0.5-0.2,1.1,0,1.5,0.4l13.1,15.7c0.7,0.9,0.1,2.2-1,2.2l-56.2,0
				C672.5,264.3,672.1,262.2,673.6,261.7z"/>
		</g>
	</g>
</g>
<g id="Logo-02" class="st4">
	<path class="st5" d="M147.2,318l-57.1,0c-3.6,0-9.2,0.5-11.7-2l-0.2-0.2l-29.4-31.1c-2.5-2.5-3.8-5.8-3.8-9.4c0-0.5,0-1,0.1-1.4
		v-0.2l0.1-0.8L85.8,42.4l0.1-0.5c1.3-6.1,6.9-10.6,13.1-10.6h723.6c36.4,0,64,32.9,57.6,68.7l-3.4,19.2c-5.9,33.5-35,58-69.1,58
		h-36.1c-0.1,0-0.2,0.1-0.2,0.2l-17.7,100.3c0,0,0,0,0,0l0,0c-1.4,6.2-6.9,10.6-13.3,10.6H201.7c-0.1,0-0.2,0-0.2,0.1
		C196.8,297.4,174.2,318,147.2,318z"/>
	<g class="st6">
		<polygon class="st1" points="62.4,273.9 94.2,273.9 89.2,301.6 		"/>
		<g>
			<path class="st0" d="M229.2,48L209.6,159h-31.7l8.4-47.6l-34.5,15.9l-28.9-15.9L94.2,273.9H62.4L102.3,48h7.9l46,31.7L219.3,48
				H229.2z"/>
			<path class="st0" d="M345.2,154.9l-0.7,4h-31.7l-5.1-15.9H260l-10.7,15.9h-31.7l0.7-4l74.4-107.1h11.9L345.2,154.9z M299.9,119.2
				l-7.7-23.8l-16.1,23.8H299.9z"/>
			<path class="st0" d="M446.6,115.1l17.4,40.1l-0.7,4h-31.7l-15.8-38h-25.1l-6.7,38h-31.7l19.6-111.1h59.8
				c24,0,40.4,11.9,37.9,31.3C467.2,97,461.6,107.6,446.6,115.1z M395.4,95.3h31.7c8.5,0,14.8-5.7,14.8-13.6c0-5.9-5-10.3-12.1-10.3
				l-30.3,0L395.4,95.3z"/>
			<path class="st0" d="M565.8,114.7l17.4,40.1l-0.7,4h-31.7l-15.8-38h-25.1l-6.7,38h-31.7L491,47.8h59.8c24,0,40.4,11.9,37.9,31.3
				C586.3,96.6,580.7,107.2,565.8,114.7z M514.6,94.9h31.7c8.5,0,14.8-5.7,14.8-13.6c0-5.9-5-10.3-12.1-10.3l-30.3,0L514.6,94.9z"/>
			<path class="st0" d="M610,47.8h31.7l-19.6,111.1h-31.7L610,47.8z"/>
			<path class="st0" d="M684.4,75.5l-2.8,15.9h55.5l-4.2,23.8h-55.5l-2.8,15.9h63.5l-4.9,27.8H638l19.6-111.1h95.2l-4.9,27.8H684.4z
				"/>
			<path class="st0" d="M862.7,99l-2.8,15.9c-4.5,25.4-26.6,43.9-52.4,43.9l-10.9,0h-55.3c-0.1,0-0.3-0.1-0.2-0.3L760.7,48
				c0-0.1,0.1-0.2,0.2-0.2l58.9,0C846.9,47.8,867.4,72.3,862.7,99z M813.7,75.5h-25.9c-0.1,0-0.2,0.1-0.2,0.2l-9.7,55.1
				c0,0.1,0.1,0.3,0.2,0.3h25.1c12.8,0,23.8-9.2,26-21.8l2.2-12.6C833.3,85.6,824.8,75.5,813.7,75.5z"/>
			<path class="st0" d="M202.1,174.7h-23.9c-1.8,0.1-3.3,1.4-3.7,3.2l-2.2,12.7c-1.6-11.9-7-15.9-21-15.9
				c-27.4,0-34.5,15.9-40.1,47.6c-5.6,31.7,4.4,43.6,24.1,43.6c12.3,0,25.2-7.9,25.9-11.9c-2.8,15.9-11.9,19.8-27.3,19.8
				c-11.7,0-39.6,0-39.6,0l-4.9,27.8c0,0,33.4,0,47.6,0c31.6,0,50.4-15.9,54.6-39.7l14.5-82.5c0,0,0-0.1,0-0.1
				c0-0.2,0.1-0.5,0.1-0.7C206.1,176.5,204.3,174.7,202.1,174.7z M163.9,238.2c-4.9,4.2-10.5,4-16.6,4c-15.9,0-13.3-14.5-11.7-23.8
				c2.8-15.9,10.7-15.9,18.7-15.9c3.5,0,11.2,0,15.2,4L163.9,238.2z"/>
			<path class="st0" d="M297.2,174.7h-23.9c-1.8,0.1-3.3,1.4-3.7,3.2l-2.2,12.7c-1.6-11.9-7-15.9-21-15.9
				c-27.4,0-34.5,15.9-40.1,47.6c-5.6,31.7,4.4,43.6,24.1,43.6c12.3,0,25.3-7.9,26-11.9c-0.9,5.2-1.5,8.7-2,11.1c0,0.1,0,0.1,0,0.2
				c0,0.2-0.1,0.5-0.1,0.7c0,2.2,1.8,4,4,4h23.7c1.9,0,3.5-1.4,3.9-3.2l15.3-87.3c0,0,0-0.1,0-0.1c0-0.2,0.1-0.5,0.1-0.7
				C301.1,176.5,299.4,174.7,297.2,174.7z M259,238.2c-4.9,4.2-10.5,4-16.6,4c-15.9,0-13.3-14.5-11.7-23.8
				c2.8-15.9,10.7-15.9,18.7-15.9c3.5,0,11.2,0,15.2,4L259,238.2z"/>
			<path class="st0" d="M446.5,190.6c-4.7-22.1-36-18.5-51-6.1c-2,1.7-3.8,3.8-5.3,6.1c-0.7-3-1.5-5.5-2.4-7.5
				c-5.4-12.3-27.3-9.7-39.2-2.8c-3.8,2.4-7.1,5.8-9.7,10.3l2-11.1c0.1-0.3,0.1-0.5,0.1-0.8c0-2.2-1.8-4-4-4h-23.7
				c-1.9,0-3.5,1.3-3.9,3.1c0,0.1-15.4,87.4-15.4,87.5c-0.3,1.8,0.9,4.1,3.9,4.6h23.7c1.9,0,3.4-1.3,3.9-3.1
				c0,0,10.1-57.2,10.1-57.2c0.4-1.8,2-3.2,3.9-3.2h15.8c2.2,0,3.9,1.8,3.9,4c0,0.3-9.6,54.8-9.6,54.9c0,0.2-0.1,0.4-0.1,0.7
				c0,2.2,1.8,4,4,4h23.7c1.9,0,3.4-1.3,3.9-3c0,0,10.1-57.2,10.1-57.3c0.4-1.8,2-3.1,3.9-3.1h15.7c2.2,0,4,1.8,4,4
				c0,0.1-0.1,0.7-0.1,0.8c0,0-9.5,54-9.5,54c0,0.2-0.1,0.4-0.1,0.7c0,2.2,1.8,4,4,4h23.7c1.9,0,3.4-1.3,3.9-3
				c0,0,10.4-59.1,10.5-60.4C447.7,200.6,447.6,195.2,446.5,190.6z"/>
			<path class="st0" d="M494.3,174.7c-19.4,0-36,14-39.3,33.1l-2.5,14.5l-1,5.4c-3.9,22,13,42.2,35.3,42.2l4.9,0h36.3
				c1.9,0,3.5-1.3,3.9-3.1c0-0.1,2.3-13.1,3.5-20.2c0.4-2.3-1.4-4.5-3.8-4.5l-32.2,0c-15.9,0-23.1-4-21.7-11.9h57.2
				c1.9,0,3.5-1.3,3.9-3.1c0-0.1,0-0.2,0-0.2c0.1-0.6,1.3-7.4,2.8-15.8c3.3-19-11.3-36.3-30.5-36.3H494.3z M518.6,206.4H479v0
				c1-6.1,6.3-10.6,12.5-10.6h18.3C515.3,195.9,519.6,200.9,518.6,206.4L518.6,206.4z"/>
			<path class="st0" d="M586,202.5h12.5c6.7-0.1,28.6,0,28.6,0c1.9,0,3.4-1.3,3.8-3.1c0,0,0,0,0,0s3.5-20.1,3.5-20.2
				c0-0.1,0-0.3,0-0.4c0-2.1-1.7-3.9-3.8-4h-0.3c-5.9,0-16.3,0-26.9,0c-31.7,0-47.6,0-53.2,31.7c-4.2,23.8,11,27.8,26.8,27.8h19.1
				c2.2,0,4,1.8,4,4c0,2.2-1.8,4-4,4h-48.9c-1.9,0-3.5,1.4-3.9,3.2L540,265c-0.5,2,0.7,4.3,3.9,4.9h34.8c31.7,0,47.7,0,53.3-31.7
				c4.2-23.8-11-27.8-26.8-27.8H586c-2.2,0-4-1.8-4-4C582.1,204.2,583.9,202.5,586,202.5z"/>
		</g>
		<g>
			<path class="st3" d="M737.7,249.8l-0.7,7.6c-0.1,1.2-1.6,1.7-2.4,0.8l-10.8-12.8c-0.6-0.7-0.3-1.8,0.6-2.1l8.4-3.1
				c0.7-0.3,1.5,0.1,1.7,0.8l3,8.4C737.7,249.4,737.7,249.6,737.7,249.8z"/>
			<path class="st3" d="M695.9,190.4l35.7,42.6c0.1,0.1,0.2,0.3,0.2,0.4l0,0.1c0.3,0.7-0.1,1.5-0.8,1.7l-11.1,4
				c-0.5,0.2-1.1,0-1.5-0.4l-30.6-36.4c-0.4-0.4-0.4-1.1-0.1-1.5l5.9-10.2c0.4-0.6,1.2-0.9,1.8-0.5v0
				C695.7,190.2,695.8,190.3,695.9,190.4z"/>
			<path class="st3" d="M681,181.7l7.8,4.5c0.6,0.4,0.9,1.2,0.5,1.8l-4.5,7.8c-0.5,0.8-1.6,0.9-2.2,0.2l-10.8-12.9
				c-0.8-0.9,0-2.3,1.2-2.2l7.6,0.7C680.6,181.5,680.8,181.6,681,181.7z"/>
			<path class="st3" d="M667.2,185.9l13.1,15.7c0.4,0.4,0.4,1.1,0.1,1.5l-22.9,39.7c-0.8,1.3-2.8,0.6-2.5-0.9l9.8-55.3
				C665.1,185.4,666.5,185,667.2,185.9z"/>
			<path class="st3" d="M685.8,208l26.9,32c0.6,0.7,0.3,1.8-0.6,2.1L654.7,263c-1.2,0.4-2.3-0.9-1.6-1.9l30.6-52.9
				C684.1,207.3,685.2,207.2,685.8,208z"/>
			<path class="st3" d="M673.6,261.7l43-15.7c0.5-0.2,1.1,0,1.5,0.4l13.1,15.7c0.7,0.9,0.1,2.2-1,2.2l-56.2,0
				C672.5,264.3,672.1,262.2,673.6,261.7z"/>
		</g>
	</g>
</g>
<g id="Mono-03" class="st4">
	<path class="st6" d="M147.2,318l-57.1,0c-3.6,0-9.2,0.5-11.7-2l-0.2-0.2l-29.4-31.1c-2.5-2.5-3.8-5.8-3.8-9.4c0-0.5,0-1,0.1-1.4
		v-0.2l0.1-0.8L85.8,42.4l0.1-0.5c1.3-6.1,6.9-10.6,13.1-10.6h723.6c36.4,0,64,32.9,57.6,68.7l-3.4,19.2c-5.9,33.5-35,58-69.1,58
		h-36.1c-0.1,0-0.2,0.1-0.2,0.2l-17.7,100.3c0,0,0,0,0,0l0,0c-1.4,6.2-6.9,10.6-13.3,10.6H201.7c-0.1,0-0.2,0-0.2,0.1
		C196.8,297.4,174.2,318,147.2,318z"/>
	<g class="st6">
		<polygon class="st7" points="62.4,273.9 94.2,273.9 89.2,301.6 		"/>
		<g>
			<path class="st8" d="M229.2,48L209.6,159h-31.7l8.4-47.6l-34.5,15.9l-28.9-15.9L94.2,273.9H62.4L102.3,48h7.9l46,31.7L219.3,48
				H229.2z"/>
			<path class="st8" d="M345.2,154.9l-0.7,4h-31.7l-5.1-15.9H260l-10.7,15.9h-31.7l0.7-4l74.4-107.1h11.9L345.2,154.9z M299.9,119.2
				l-7.7-23.8l-16.1,23.8H299.9z"/>
			<path class="st8" d="M446.6,115.1l17.4,40.1l-0.7,4h-31.7l-15.8-38h-25.1l-6.7,38h-31.7l19.6-111.1h59.8
				c24,0,40.4,11.9,37.9,31.3C467.2,97,461.6,107.6,446.6,115.1z M395.4,95.3h31.7c8.5,0,14.8-5.7,14.8-13.6c0-5.9-5-10.3-12.1-10.3
				l-30.3,0L395.4,95.3z"/>
			<path class="st8" d="M565.8,114.7l17.4,40.1l-0.7,4h-31.7l-15.8-38h-25.1l-6.7,38h-31.7L491,47.8h59.8c24,0,40.4,11.9,37.9,31.3
				C586.3,96.6,580.7,107.2,565.8,114.7z M514.6,95h31.7c8.5,0,14.8-5.7,14.8-13.6c0-5.9-5-10.3-12.1-10.3l-30.3,0L514.6,95z"/>
			<path class="st8" d="M610,47.8h31.7l-19.6,111.1h-31.7L610,47.8z"/>
			<path class="st8" d="M684.4,75.5l-2.8,15.9h55.5l-4.2,23.8h-55.5l-2.8,15.9h63.5l-4.9,27.8H638l19.6-111.1h95.2l-4.9,27.8H684.4z
				"/>
			<path class="st8" d="M862.7,99l-2.8,15.9c-4.5,25.4-26.6,43.9-52.4,43.9l-10.9,0h-55.3c-0.1,0-0.3-0.1-0.2-0.3L760.7,48
				c0-0.1,0.1-0.2,0.2-0.2l58.9,0C846.9,47.8,867.4,72.3,862.7,99z M813.7,75.5h-25.9c-0.1,0-0.2,0.1-0.2,0.2l-9.7,55.1
				c0,0.1,0.1,0.3,0.2,0.3h25.1c12.8,0,23.8-9.2,26-21.8l2.2-12.6C833.3,85.6,824.8,75.5,813.7,75.5z"/>
			<path class="st8" d="M202.1,174.7h-23.9c-1.8,0.1-3.3,1.4-3.7,3.2l-2.2,12.7c-1.6-11.9-7-15.9-21-15.9
				c-27.4,0-34.5,15.9-40.1,47.6c-5.6,31.7,4.4,43.6,24.1,43.6c12.3,0,25.2-7.9,25.9-11.9c-2.8,15.9-11.9,19.8-27.3,19.8
				c-11.7,0-39.6,0-39.6,0l-4.9,27.8c0,0,33.4,0,47.6,0c31.6,0,50.4-15.9,54.6-39.7l14.5-82.5c0,0,0-0.1,0-0.1
				c0-0.2,0.1-0.5,0.1-0.7C206.1,176.5,204.3,174.7,202.1,174.7z M163.9,238.2c-4.9,4.2-10.5,4-16.6,4c-15.9,0-13.3-14.5-11.7-23.8
				c2.8-15.9,10.7-15.9,18.7-15.9c3.5,0,11.2,0,15.2,4L163.9,238.2z"/>
			<path class="st8" d="M297.2,174.7h-23.9c-1.8,0.1-3.3,1.4-3.7,3.2l-2.2,12.7c-1.6-11.9-7-15.9-21-15.9
				c-27.4,0-34.5,15.9-40.1,47.6c-5.6,31.7,4.4,43.6,24.1,43.6c12.3,0,25.3-7.9,26-11.9c-0.9,5.2-1.5,8.7-2,11.1c0,0.1,0,0.1,0,0.2
				c0,0.2-0.1,0.5-0.1,0.7c0,2.2,1.8,4,4,4h23.7c1.9,0,3.5-1.4,3.9-3.2l15.3-87.3c0,0,0-0.1,0-0.1c0-0.2,0.1-0.5,0.1-0.7
				C301.1,176.5,299.4,174.7,297.2,174.7z M259,238.2c-4.9,4.2-10.5,4-16.6,4c-15.9,0-13.3-14.5-11.7-23.8
				c2.8-15.9,10.7-15.9,18.7-15.9c3.5,0,11.2,0,15.2,4L259,238.2z"/>
			<path class="st8" d="M446.5,190.6c-4.7-22.1-36-18.5-51-6.1c-2,1.7-3.8,3.8-5.3,6.1c-0.7-3-1.5-5.5-2.4-7.5
				c-5.4-12.3-27.3-9.7-39.2-2.8c-3.8,2.4-7.1,5.8-9.7,10.3l2-11.1c0.1-0.3,0.1-0.5,0.1-0.8c0-2.2-1.8-4-4-4h-23.7
				c-1.9,0-3.5,1.3-3.9,3.1c0,0.1-15.4,87.4-15.4,87.5c-0.3,1.8,0.9,4.1,3.9,4.6h23.7c1.9,0,3.4-1.3,3.9-3.1
				c0,0,10.1-57.2,10.1-57.2c0.4-1.8,2-3.2,3.9-3.2h15.8c2.2,0,3.9,1.8,3.9,4c0,0.3-9.6,54.8-9.6,54.9c0,0.2-0.1,0.4-0.1,0.7
				c0,2.2,1.8,4,4,4h23.7c1.9,0,3.4-1.3,3.9-3c0,0,10.1-57.2,10.1-57.3c0.4-1.8,2-3.1,3.9-3.1h15.7c2.2,0,4,1.8,4,4
				c0,0.1-0.1,0.7-0.1,0.8c0,0-9.5,54-9.5,54c0,0.2-0.1,0.4-0.1,0.7c0,2.2,1.8,4,4,4h23.7c1.9,0,3.4-1.3,3.9-3
				c0,0,10.4-59.1,10.5-60.4C447.7,200.6,447.6,195.2,446.5,190.6z"/>
			<path class="st8" d="M494.3,174.7c-19.4,0-36,14-39.3,33.1l-2.5,14.5l-1,5.4c-3.9,22,13,42.2,35.3,42.2l4.9,0h36.3
				c1.9,0,3.5-1.3,3.9-3.1c0-0.1,2.3-13.1,3.5-20.2c0.4-2.3-1.4-4.5-3.8-4.5l-32.2,0c-15.9,0-23.1-4-21.7-11.9h57.2
				c1.9,0,3.5-1.3,3.9-3.1c0-0.1,0-0.2,0-0.2c0.1-0.6,1.3-7.4,2.8-15.8c3.3-19-11.3-36.3-30.5-36.3H494.3z M518.6,206.4H479v0
				c1-6.1,6.3-10.6,12.5-10.6h18.3C515.3,195.9,519.6,200.9,518.6,206.4L518.6,206.4z"/>
			<path class="st8" d="M586,202.5h12.5c6.7-0.1,28.6,0,28.6,0c1.9,0,3.4-1.3,3.8-3.1c0,0,0,0,0,0s3.5-20.1,3.5-20.2
				c0-0.1,0-0.3,0-0.4c0-2.1-1.7-3.9-3.8-4h-0.3c-5.9,0-16.3,0-26.9,0c-31.7,0-47.6,0-53.2,31.7c-4.2,23.8,11,27.8,26.8,27.8h19.1
				c2.2,0,4,1.8,4,4c0,2.2-1.8,4-4,4h-48.9c-1.9,0-3.5,1.4-3.9,3.2L540,265c-0.5,2,0.7,4.3,3.9,4.9h34.8c31.7,0,47.7,0,53.3-31.7
				c4.2-23.8-11-27.8-26.8-27.8H586c-2.2,0-4-1.8-4-4C582.1,204.2,583.9,202.5,586,202.5z"/>
		</g>
		<g>
			<path class="st8" d="M737.7,249.8l-0.7,7.6c-0.1,1.2-1.6,1.7-2.4,0.8l-10.8-12.8c-0.6-0.7-0.3-1.8,0.6-2.1l8.4-3.1
				c0.7-0.3,1.5,0.1,1.7,0.8l3,8.4C737.7,249.4,737.7,249.6,737.7,249.8z"/>
			<path class="st8" d="M695.9,190.4l35.7,42.6c0.1,0.1,0.2,0.3,0.2,0.4l0,0.1c0.3,0.7-0.1,1.5-0.8,1.7l-11.1,4
				c-0.5,0.2-1.1,0-1.5-0.4l-30.6-36.4c-0.4-0.4-0.4-1.1-0.1-1.5l5.9-10.2c0.4-0.6,1.2-0.9,1.8-0.5l0,0
				C695.7,190.2,695.8,190.3,695.9,190.4z"/>
			<path class="st8" d="M681,181.7l7.8,4.5c0.6,0.4,0.9,1.2,0.5,1.8l-4.5,7.8c-0.5,0.8-1.6,0.9-2.2,0.2l-10.8-12.9
				c-0.8-0.9,0-2.3,1.2-2.2l7.6,0.7C680.6,181.5,680.8,181.6,681,181.7z"/>
			<path class="st8" d="M667.2,185.9l13.1,15.7c0.4,0.4,0.4,1.1,0.1,1.5l-22.9,39.7c-0.8,1.3-2.8,0.6-2.5-0.9l9.8-55.3
				C665.1,185.4,666.5,185,667.2,185.9z"/>
			<path class="st8" d="M685.8,208l26.9,32c0.6,0.7,0.3,1.8-0.6,2.1L654.7,263c-1.2,0.4-2.3-0.9-1.6-1.9l30.6-52.9
				C684.1,207.3,685.2,207.2,685.8,208z"/>
			<path class="st8" d="M673.6,261.7l43-15.7c0.5-0.2,1.1,0,1.5,0.4l13.1,15.7c0.7,0.9,0.1,2.2-1,2.2l-56.2,0
				C672.5,264.3,672.1,262.2,673.6,261.7z"/>
		</g>
	</g>
</g>
<g id="Mono-04" class="st4">
	<path class="st9" d="M147.2,318l-57.1,0c-3.6,0-9.2,0.5-11.7-2l-0.2-0.2l-29.4-31.1c-2.5-2.5-3.8-5.8-3.8-9.4c0-0.5,0-1,0.1-1.4
		v-0.2l0.1-0.8L85.8,42.4l0.1-0.5c1.3-6.1,6.9-10.6,13.1-10.6h723.6c36.4,0,64,32.9,57.6,68.7l-3.4,19.2c-5.9,33.5-35,58-69.1,58
		h-36.1c-0.1,0-0.2,0.1-0.2,0.2l-17.7,100.3c0,0,0,0,0,0l0,0c-1.4,6.2-6.9,10.6-13.3,10.6H201.7c-0.1,0-0.2,0-0.2,0.1
		C196.8,297.4,174.2,318,147.2,318z"/>
	<g class="st6">
		<polygon class="st10" points="62.4,273.9 94.2,273.9 89.2,301.6 		"/>
		<g>
			<path d="M229.2,48L209.6,159h-31.7l8.4-47.6l-34.5,15.9l-28.9-15.9L94.2,273.9H62.4L102.3,48h7.9l46,31.7L219.3,48H229.2z"/>
			<path d="M345.2,154.9l-0.7,4h-31.7l-5.1-15.9H260l-10.7,15.9h-31.7l0.7-4l74.4-107.1h11.9L345.2,154.9z M299.9,119.2l-7.7-23.8
				l-16.1,23.8H299.9z"/>
			<path d="M446.6,115.1l17.4,40.1l-0.7,4h-31.7l-15.8-38h-25.1l-6.7,38h-31.7l19.6-111.1h59.8c24,0,40.4,11.9,37.9,31.3
				C467.2,97,461.6,107.6,446.6,115.1z M395.4,95.3h31.7c8.5,0,14.8-5.7,14.8-13.6c0-5.9-5-10.3-12.1-10.3l-30.3,0L395.4,95.3z"/>
			<path d="M565.8,114.7l17.4,40.1l-0.7,4h-31.7l-15.8-38h-25.1l-6.7,38h-31.7L491,47.8h59.8c24,0,40.4,11.9,37.9,31.3
				C586.3,96.6,580.7,107.2,565.8,114.7z M514.6,95h31.7c8.5,0,14.8-5.7,14.8-13.6c0-5.9-5-10.3-12.1-10.3l-30.3,0L514.6,95z"/>
			<path d="M610,47.8h31.7l-19.6,111.1h-31.7L610,47.8z"/>
			<path d="M684.4,75.5l-2.8,15.9h55.5l-4.2,23.8h-55.5l-2.8,15.9h63.5l-4.9,27.8H638l19.6-111.1h95.2l-4.9,27.8H684.4z"/>
			<path d="M862.7,99l-2.8,15.9c-4.5,25.4-26.6,43.9-52.4,43.9l-10.9,0h-55.3c-0.1,0-0.3-0.1-0.2-0.3L760.7,48
				c0-0.1,0.1-0.2,0.2-0.2l58.9,0C846.9,47.8,867.4,72.3,862.7,99z M813.7,75.5h-25.9c-0.1,0-0.2,0.1-0.2,0.2l-9.7,55.1
				c0,0.1,0.1,0.3,0.2,0.3h25.1c12.8,0,23.8-9.2,26-21.8l2.2-12.6C833.3,85.6,824.8,75.5,813.7,75.5z"/>
			<path d="M202.1,174.7h-23.9c-1.8,0.1-3.3,1.4-3.7,3.2l-2.2,12.7c-1.6-11.9-7-15.9-21-15.9c-27.4,0-34.5,15.9-40.1,47.6
				c-5.6,31.7,4.4,43.6,24.1,43.6c12.3,0,25.2-7.9,25.9-11.9c-2.8,15.9-11.9,19.8-27.3,19.8c-11.7,0-39.6,0-39.6,0l-4.9,27.8
				c0,0,33.4,0,47.6,0c31.6,0,50.4-15.9,54.6-39.7l14.5-82.5c0,0,0-0.1,0-0.1c0-0.2,0.1-0.5,0.1-0.7
				C206.1,176.5,204.3,174.7,202.1,174.7z M163.9,238.2c-4.9,4.2-10.5,4-16.6,4c-15.9,0-13.3-14.5-11.7-23.8
				c2.8-15.9,10.7-15.9,18.7-15.9c3.5,0,11.2,0,15.2,4L163.9,238.2z"/>
			<path d="M297.2,174.7h-23.9c-1.8,0.1-3.3,1.4-3.7,3.2l-2.2,12.7c-1.6-11.9-7-15.9-21-15.9c-27.4,0-34.5,15.9-40.1,47.6
				c-5.6,31.7,4.4,43.6,24.1,43.6c12.3,0,25.3-7.9,26-11.9c-0.9,5.2-1.5,8.7-2,11.1c0,0.1,0,0.1,0,0.2c0,0.2-0.1,0.5-0.1,0.7
				c0,2.2,1.8,4,4,4h23.7c1.9,0,3.5-1.4,3.9-3.2l15.3-87.3c0,0,0-0.1,0-0.1c0-0.2,0.1-0.5,0.1-0.7
				C301.1,176.5,299.4,174.7,297.2,174.7z M259,238.2c-4.9,4.2-10.5,4-16.6,4c-15.9,0-13.3-14.5-11.7-23.8
				c2.8-15.9,10.7-15.9,18.7-15.9c3.5,0,11.2,0,15.2,4L259,238.2z"/>
			<path d="M446.5,190.6c-4.7-22.1-36-18.5-51-6.1c-2,1.7-3.8,3.8-5.3,6.1c-0.7-3-1.5-5.5-2.4-7.5c-5.4-12.3-27.3-9.7-39.2-2.8
				c-3.8,2.4-7.1,5.8-9.7,10.3l2-11.1c0.1-0.3,0.1-0.5,0.1-0.8c0-2.2-1.8-4-4-4h-23.7c-1.9,0-3.5,1.3-3.9,3.1
				c0,0.1-15.4,87.4-15.4,87.5c-0.3,1.8,0.9,4.1,3.9,4.6h23.7c1.9,0,3.4-1.3,3.9-3.1c0,0,10.1-57.2,10.1-57.2c0.4-1.8,2-3.2,3.9-3.2
				h15.8c2.2,0,3.9,1.8,3.9,4c0,0.3-9.6,54.8-9.6,54.9c0,0.2-0.1,0.4-0.1,0.7c0,2.2,1.8,4,4,4h23.7c1.9,0,3.4-1.3,3.9-3
				c0,0,10.1-57.2,10.1-57.3c0.4-1.8,2-3.1,3.9-3.1h15.7c2.2,0,4,1.8,4,4c0,0.1-0.1,0.7-0.1,0.8c0,0-9.5,54-9.5,54
				c0,0.2-0.1,0.4-0.1,0.7c0,2.2,1.8,4,4,4h23.7c1.9,0,3.4-1.3,3.9-3c0,0,10.4-59.1,10.5-60.4C447.7,200.6,447.6,195.2,446.5,190.6z
				"/>
			<path d="M494.3,174.7c-19.4,0-36,14-39.3,33.1l-2.5,14.5l-1,5.4c-3.9,22,13,42.2,35.3,42.2l4.9,0h36.3c1.9,0,3.5-1.3,3.9-3.1
				c0-0.1,2.3-13.1,3.5-20.2c0.4-2.3-1.4-4.5-3.8-4.5l-32.2,0c-15.9,0-23.1-4-21.7-11.9h57.2c1.9,0,3.5-1.3,3.9-3.1
				c0-0.1,0-0.2,0-0.2c0.1-0.6,1.3-7.4,2.8-15.8c3.3-19-11.3-36.3-30.5-36.3H494.3z M518.6,206.4H479v0c1-6.1,6.3-10.6,12.5-10.6
				h18.3C515.3,195.9,519.6,200.9,518.6,206.4L518.6,206.4z"/>
			<path d="M586,202.5h12.5c6.7-0.1,28.6,0,28.6,0c1.9,0,3.4-1.3,3.8-3.1c0,0,0,0,0,0s3.5-20.1,3.5-20.2c0-0.1,0-0.3,0-0.4
				c0-2.1-1.7-3.9-3.8-4h-0.3c-5.9,0-16.3,0-26.9,0c-31.7,0-47.6,0-53.2,31.7c-4.2,23.8,11,27.8,26.8,27.8h19.1c2.2,0,4,1.8,4,4
				c0,2.2-1.8,4-4,4h-48.9c-1.9,0-3.5,1.4-3.9,3.2L540,265c-0.5,2,0.7,4.3,3.9,4.9h34.8c31.7,0,47.7,0,53.3-31.7
				c4.2-23.8-11-27.8-26.8-27.8H586c-2.2,0-4-1.8-4-4C582.1,204.2,583.9,202.5,586,202.5z"/>
		</g>
		<g>
			<path d="M737.7,249.8l-0.7,7.6c-0.1,1.2-1.6,1.7-2.4,0.8l-10.8-12.8c-0.6-0.7-0.3-1.8,0.6-2.1l8.4-3.1c0.7-0.3,1.5,0.1,1.7,0.8
				l3,8.4C737.7,249.4,737.7,249.6,737.7,249.8z"/>
			<path d="M695.9,190.4l35.7,42.6c0.1,0.1,0.2,0.3,0.2,0.4l0,0.1c0.3,0.7-0.1,1.5-0.8,1.7l-11.1,4c-0.5,0.2-1.1,0-1.5-0.4
				l-30.6-36.4c-0.4-0.4-0.4-1.1-0.1-1.5l5.9-10.2c0.4-0.6,1.2-0.9,1.8-0.5l0,0C695.7,190.2,695.8,190.3,695.9,190.4z"/>
			<path d="M681,181.7l7.8,4.5c0.6,0.4,0.9,1.2,0.5,1.8l-4.5,7.8c-0.5,0.8-1.6,0.9-2.2,0.2l-10.8-12.9c-0.8-0.9,0-2.3,1.2-2.2
				l7.6,0.7C680.6,181.5,680.8,181.6,681,181.7z"/>
			<path d="M667.2,185.9l13.1,15.7c0.4,0.4,0.4,1.1,0.1,1.5l-22.9,39.7c-0.8,1.3-2.8,0.6-2.5-0.9l9.8-55.3
				C665.1,185.4,666.5,185,667.2,185.9z"/>
			<path d="M685.8,208l26.9,32c0.6,0.7,0.3,1.8-0.6,2.1L654.7,263c-1.2,0.4-2.3-0.9-1.6-1.9l30.6-52.9
				C684.1,207.3,685.2,207.2,685.8,208z"/>
			<path d="M673.6,261.7l43-15.7c0.5-0.2,1.1,0,1.5,0.4l13.1,15.7c0.7,0.9,0.1,2.2-1,2.2l-56.2,0
				C672.5,264.3,672.1,262.2,673.6,261.7z"/>
		</g>
	</g>
</g>
</svg>
